<svg id="Layer_1" enable-background="new 0 0 511.98 511.98" height="512" viewBox="0 0 511.98 511.98" width="512" xmlns="http://www.w3.org/2000/svg"><g><g><g><g><g><circle cx="255.979" cy="292.578" fill="#5ed8f6" r="211.922"/></g><path d="m255.979 80.656c-6.746 0-13.415.329-20 .946 107.66 10.08 191.922 100.681 191.922 210.976s-84.262 200.896-191.922 210.976c6.585.616 13.254.946 20 .946 117.041 0 211.922-94.881 211.922-211.922 0-117.042-94.88-211.922-211.922-211.922z" fill="#26c8f0"/><g fill="#d0ee7f"><path d="m230.56 186.966c15.819 2.971 29 13.863 34.901 28.838l.687 1.743c4.836 12.274 14.628 21.937 26.966 26.609l73.704 27.911c4.82 1.825 8.226 6.179 8.838 11.297l3.812 31.9c1.43 11.97 16.42 16.511 24.253 7.348l11.665-13.646c8.891-10.4 21.888-16.389 35.571-16.389h16.944c0-117.042-94.881-211.922-211.922-211.922-27.532 0-53.837 5.253-77.97 14.807l16.095 58.02c4.772 17.201 18.913 30.189 36.456 33.484z"/><path d="m79.958 316.48-1.681-37.28c-.411-9.117 1.542-18.185 5.668-26.325l17.719-34.948c6.149-12.128 7.396-26.157 3.481-39.179l-7.962-26.49c-33.053 37.377-53.126 86.501-53.126 140.32 0 30 6.247 58.536 17.49 84.4l14.981-39.223c2.59-6.782 3.757-14.023 3.43-21.275z"/><path d="m375.096 402.161-38.63 30.165c-6.145 4.798-14.106 6.615-21.725 4.956l-52.533-11.438c-8.793-1.914-17.955.813-24.27 7.224l-56.907 57.78c23.303 8.813 48.558 13.651 74.948 13.651 67.957 0 128.437-31.992 167.218-81.731l-10.456-14.96c-8.611-12.321-25.796-14.899-37.645-5.647z"/></g><path d="m255.979 80.656c-.001 0-.002 0-.004 0-6.745 0-13.412.329-19.996.946 107.66 10.08 191.922 100.681 191.922 210.976 0 2.057-.039 4.104-.097 6.147 6.98-3.975 14.939-6.147 23.153-6.147h16.944c0-117.042-94.88-211.922-211.922-211.922z" fill="#aee617"/></g><g><path d="m451.206 73.354c0 62.433-65.854 130.853-65.854 130.853s-65.854-68.42-65.854-130.853c0-36.37 29.484-65.854 65.854-65.854s65.854 29.484 65.854 65.854z" fill="#fe75a7"/><path d="m385.352 7.5c-6.974 0-13.691 1.093-20 3.102 26.59 8.468 45.854 33.356 45.854 62.752 0 39.59-26.477 81.58-45.854 107.012 11.181 14.675 20 23.841 20 23.841s65.854-68.42 65.854-130.853c0-36.37-29.484-65.854-65.854-65.854z" fill="#fe5995"/><circle cx="385.352" cy="75.637" fill="#fff" r="26.94"/></g></g><g><path d="m412.742 407.809c-3.307-4.731-7.879-8.019-12.926-9.759-33.437 58.147-93.662 98.934-163.836 105.504 71.561 6.699 143.002-24.074 187.218-80.785z" fill="#aee617"/></g></g><g fill="#060606"><path d="m267.909 511.674c58.723-3.124 114.722-30.454 153.342-74.769 35.018-39.984 54.15-90.682 54.15-144.327 0-48.478-16.216-95.888-45.759-134.122 15.207-24.635 29.064-55.264 29.064-85.102 0-11.466-2.574-22.451-7.65-32.648-1.845-3.708-6.347-5.216-10.056-3.372-3.709 1.846-5.218 6.349-3.372 10.057 4.033 8.103 6.078 16.838 6.078 25.964 0 48.379-42.964 102.006-58.357 119.664-13.686-15.683-49.128-59.738-56.849-103.353-.019-.115-.039-.229-.062-.343-.929-5.348-1.44-10.688-1.44-15.968 0-32.177 26.178-58.354 58.354-58.354 11.86 0 23.274 3.535 33.006 10.223 3.413 2.346 8.083 1.48 10.43-1.934 2.346-3.414 1.479-8.083-1.934-10.429-12.244-8.414-26.595-12.861-41.503-12.861-40.447 0-73.354 32.907-73.354 73.354 0 2.362.097 4.729.264 7.097-141.61-37.478-285.81 79.87-275.123 228.125 3.564 49.683 24.499 97.458 58.598 133.897 5.502 5.881 18.814-1.848 10.953-10.249-15.472-16.533-27.915-35.265-37.04-55.44l13.884-36.353c2.976-7.787 4.293-15.958 3.917-24.289l-1.681-37.28c-.352-7.809 1.331-15.622 4.866-22.595l17.718-34.948c7.052-13.909 8.464-29.794 3.975-44.729l-6.715-22.342c18.824-20.446 41.751-37.055 67.464-48.508l13.801 49.749c5.494 19.806 22.097 35.055 42.298 38.85 13.365 2.51 24.321 11.563 29.307 24.216l.688 1.743c5.599 14.211 17.003 25.465 31.287 30.874l73.705 27.911c2.215.839 3.766 2.821 4.046 5.173l3.813 31.9c2.169 18.15 25.778 24.926 37.402 11.332l11.665-13.646c7.477-8.746 18.363-13.762 29.869-13.762h9.292c-1.477 40.735-14.924 78.466-36.93 109.774l-4.43-6.339c-10.941-15.652-33.357-19.015-48.409-7.262l-38.631 30.165c-4.4 3.437-10.056 4.726-15.513 3.539l-52.533-11.438c-11.374-2.476-23.041.997-31.208 9.291l-53.485 54.305c-16.665-6.773-32.476-15.804-47.118-26.99-7.706-5.886-16.813 6.031-9.107 11.919 41.243 31.506 93.303 47.381 145.023 44.63zm-169.946-330.767c3.375 11.229 2.314 23.172-2.988 33.629l-17.718 34.948c-4.702 9.275-6.94 19.667-6.472 30.054l1.681 37.28c.282 6.263-.708 12.406-2.945 18.261l-7.951 20.819c-20.702-63.744-8.482-134.844 32.497-187.956zm311.722 123.186-11.664 13.646c-3.244 3.794-10.4 2.547-11.106-3.365l-3.813-31.899c-.946-7.92-6.168-14.596-13.628-17.421l-73.705-27.911c-10.339-3.916-18.592-12.06-22.644-22.345l-.688-1.743c-6.889-17.483-22.026-29.991-40.494-33.459-14.62-2.747-26.637-13.783-30.612-28.117l-14.249-51.363c40.75-14.632 86.027-15.826 127.517-3.428 12.146 56.862 62.906 110.185 65.348 112.722 3.602 3.065 7.204 3.065 10.807 0 1.252-1.301 15.213-15.96 30.157-37.6 24.054 32.851 37.841 72.478 39.35 113.269h-9.306c-15.897-.001-30.94 6.929-41.27 19.014zm-214.974 183.555 48.572-49.317c4.536-4.604 11.018-6.532 17.33-5.159l52.532 11.438c9.83 2.141 20.011-.183 27.937-6.373l38.631-30.165c10.116-6.358 19.077-5.014 26.882 4.033l7.187 10.282c-52.671 63.914-140.656 89.899-219.071 65.261z"/><path d="m385.351 41.197c-18.99 0-34.44 15.45-34.44 34.44s15.45 34.44 34.44 34.44 34.44-15.45 34.44-34.44-15.449-34.44-34.44-34.44zm0 53.881c-10.72 0-19.44-8.721-19.44-19.44s8.721-19.44 19.44-19.44 19.44 8.721 19.44 19.44-8.72 19.44-19.44 19.44z"/></g></g></svg>